<mxfile host="" modified="2020-06-11T08:08:55.785Z" agent="5.0 (Windows NT 10.0; Win64; x64) AppleWebKit/537.36 (KHTML, like Gecko) Code/1.45.1 Chrome/78.0.3904.130 Electron/7.2.4 Safari/537.36" etag="lCEMsupJUB6yujkiBHd7" version="13.1.3">
    <diagram id="QbpugXXi04N0f4vuCbU1" name="Page-1">
        <mxGraphModel dx="976" dy="595" grid="1" gridSize="11" guides="1" tooltips="1" connect="1" arrows="1" fold="1" page="1" pageScale="1" pageWidth="827" pageHeight="1169" math="0" shadow="0">
            <root>
                <mxCell id="0"/>
                <mxCell id="1" parent="0"/>
                <mxCell id="26" value="" style="edgeStyle=orthogonalEdgeStyle;rounded=0;orthogonalLoop=1;jettySize=auto;html=1;" parent="1" source="14" target="24" edge="1">
                    <mxGeometry relative="1" as="geometry"/>
                </mxCell>
                <mxCell id="34" style="edgeStyle=orthogonalEdgeStyle;rounded=0;orthogonalLoop=1;jettySize=auto;html=1;entryX=0.5;entryY=0;entryDx=0;entryDy=0;" parent="1" source="14" edge="1">
                    <mxGeometry relative="1" as="geometry">
                        <mxPoint x="500" y="417" as="targetPoint"/>
                    </mxGeometry>
                </mxCell>
                <mxCell id="14" value="音声認識" style="rhombus;whiteSpace=wrap;html=1;" parent="1" vertex="1">
                    <mxGeometry x="320" y="297" width="80" height="80" as="geometry"/>
                </mxCell>
                <mxCell id="21" value="" style="edgeStyle=orthogonalEdgeStyle;rounded=0;orthogonalLoop=1;jettySize=auto;html=1;" parent="1" source="15" target="16" edge="1">
                    <mxGeometry relative="1" as="geometry"/>
                </mxCell>
                <mxCell id="15" value="Start" style="rounded=1;whiteSpace=wrap;html=1;" parent="1" vertex="1">
                    <mxGeometry x="300" y="10" width="120" height="60" as="geometry"/>
                </mxCell>
                <mxCell id="38" value="" style="edgeStyle=orthogonalEdgeStyle;rounded=0;orthogonalLoop=1;jettySize=auto;html=1;" parent="1" source="16" target="37" edge="1">
                    <mxGeometry relative="1" as="geometry"/>
                </mxCell>
                <mxCell id="16" value="Library import&lt;br&gt;初期化処理" style="rounded=0;whiteSpace=wrap;html=1;" parent="1" vertex="1">
                    <mxGeometry x="300" y="110" width="120" height="60" as="geometry"/>
                </mxCell>
                <mxCell id="48" style="edgeStyle=orthogonalEdgeStyle;rounded=0;orthogonalLoop=1;jettySize=auto;html=1;" edge="1" parent="1" source="23" target="40">
                    <mxGeometry relative="1" as="geometry">
                        <Array as="points">
                            <mxPoint x="500" y="790"/>
                            <mxPoint x="360" y="790"/>
                        </Array>
                    </mxGeometry>
                </mxCell>
                <mxCell id="23" value="よく聞き取れませんでしたと表示" style="rounded=0;whiteSpace=wrap;html=1;" parent="1" vertex="1">
                    <mxGeometry x="440" y="417" width="120" height="60" as="geometry"/>
                </mxCell>
                <mxCell id="65" style="edgeStyle=orthogonalEdgeStyle;rounded=0;orthogonalLoop=1;jettySize=auto;html=1;entryX=0.5;entryY=0;entryDx=0;entryDy=0;" edge="1" parent="1" source="24" target="44">
                    <mxGeometry relative="1" as="geometry">
                        <mxPoint x="360" y="494" as="targetPoint"/>
                    </mxGeometry>
                </mxCell>
                <mxCell id="24" value="ノイズ削除&lt;br&gt;文字列データに変換" style="rounded=0;whiteSpace=wrap;html=1;" parent="1" vertex="1">
                    <mxGeometry x="300" y="417" width="120" height="60" as="geometry"/>
                </mxCell>
                <mxCell id="35" value="成功" style="text;html=1;resizable=0;points=[];autosize=1;align=left;verticalAlign=top;spacingTop=-4;" parent="1" vertex="1">
                    <mxGeometry x="320" y="377" width="40" height="10" as="geometry"/>
                </mxCell>
                <mxCell id="36" value="失敗" style="text;html=1;resizable=0;points=[];autosize=1;align=left;verticalAlign=top;spacingTop=-4;" parent="1" vertex="1">
                    <mxGeometry x="400" y="317" width="40" height="10" as="geometry"/>
                </mxCell>
                <mxCell id="39" value="" style="edgeStyle=orthogonalEdgeStyle;rounded=0;orthogonalLoop=1;jettySize=auto;html=1;" parent="1" source="37" target="14" edge="1">
                    <mxGeometry relative="1" as="geometry"/>
                </mxCell>
                <mxCell id="37" value="ループスタート" style="shape=trapezoid;perimeter=trapezoidPerimeter;whiteSpace=wrap;html=1;" parent="1" vertex="1">
                    <mxGeometry x="300" y="200" width="120" height="60" as="geometry"/>
                </mxCell>
                <mxCell id="50" value="" style="edgeStyle=orthogonalEdgeStyle;rounded=0;orthogonalLoop=1;jettySize=auto;html=1;entryX=1;entryY=0.5;entryDx=0;entryDy=0;" edge="1" parent="1" source="40" target="37">
                    <mxGeometry relative="1" as="geometry">
                        <mxPoint x="467" y="234" as="targetPoint"/>
                        <Array as="points">
                            <mxPoint x="580" y="840"/>
                            <mxPoint x="580" y="230"/>
                        </Array>
                    </mxGeometry>
                </mxCell>
                <mxCell id="71" value="" style="edgeStyle=orthogonalEdgeStyle;rounded=0;orthogonalLoop=1;jettySize=auto;html=1;" edge="1" parent="1" source="40" target="70">
                    <mxGeometry relative="1" as="geometry"/>
                </mxCell>
                <mxCell id="40" value="ループエンド" style="shape=trapezoid;perimeter=trapezoidPerimeter;whiteSpace=wrap;html=1;direction=west;" parent="1" vertex="1">
                    <mxGeometry x="300" y="810" width="120" height="60" as="geometry"/>
                </mxCell>
                <mxCell id="41" value="End" style="rounded=1;whiteSpace=wrap;html=1;" vertex="1" parent="1">
                    <mxGeometry x="300" y="1001" width="120" height="60" as="geometry"/>
                </mxCell>
                <mxCell id="66" style="edgeStyle=orthogonalEdgeStyle;rounded=0;orthogonalLoop=1;jettySize=auto;html=1;entryX=0.5;entryY=0;entryDx=0;entryDy=0;" edge="1" parent="1" source="44" target="55">
                    <mxGeometry relative="1" as="geometry"/>
                </mxCell>
                <mxCell id="44" value="文字列の形態素分析" style="rounded=0;whiteSpace=wrap;html=1;" vertex="1" parent="1">
                    <mxGeometry x="300" y="516" width="120" height="60" as="geometry"/>
                </mxCell>
                <mxCell id="57" value="" style="edgeStyle=orthogonalEdgeStyle;rounded=0;orthogonalLoop=1;jettySize=auto;html=1;" edge="1" parent="1" source="55">
                    <mxGeometry relative="1" as="geometry">
                        <mxPoint x="360" y="890" as="targetPoint"/>
                        <Array as="points">
                            <mxPoint x="210" y="644"/>
                            <mxPoint x="210" y="890"/>
                        </Array>
                    </mxGeometry>
                </mxCell>
                <mxCell id="61" value="" style="edgeStyle=orthogonalEdgeStyle;rounded=0;orthogonalLoop=1;jettySize=auto;html=1;" edge="1" parent="1" source="55">
                    <mxGeometry relative="1" as="geometry">
                        <mxPoint x="360" y="790" as="targetPoint"/>
                        <Array as="points">
                            <mxPoint x="360" y="770"/>
                            <mxPoint x="360" y="770"/>
                        </Array>
                    </mxGeometry>
                </mxCell>
                <mxCell id="58" value="含まれる" style="text;html=1;align=center;verticalAlign=middle;resizable=0;points=[];autosize=1;" vertex="1" parent="1">
                    <mxGeometry x="264" y="648" width="66" height="22" as="geometry"/>
                </mxCell>
                <mxCell id="59" value="含まれない" style="text;html=1;align=center;verticalAlign=middle;resizable=0;points=[];autosize=1;" vertex="1" parent="1">
                    <mxGeometry x="363" y="684" width="77" height="22" as="geometry"/>
                </mxCell>
                <mxCell id="55" value="&lt;font style=&quot;font-size: 6px&quot;&gt;文字列に&lt;br style=&quot;font-size: 6px&quot;&gt;”ストップ”&lt;br style=&quot;font-size: 6px&quot;&gt;が含まれている&lt;/font&gt;" style="rhombus;whiteSpace=wrap;html=1;" vertex="1" parent="1">
                    <mxGeometry x="320" y="604" width="80" height="80" as="geometry"/>
                </mxCell>
                <mxCell id="74" style="edgeStyle=orthogonalEdgeStyle;rounded=0;orthogonalLoop=1;jettySize=auto;html=1;entryX=0.5;entryY=0;entryDx=0;entryDy=0;" edge="1" parent="1" source="70" target="41">
                    <mxGeometry relative="1" as="geometry"/>
                </mxCell>
                <mxCell id="70" value="終了処理" style="rounded=0;whiteSpace=wrap;html=1;" vertex="1" parent="1">
                    <mxGeometry x="300" y="913" width="120" height="60" as="geometry"/>
                </mxCell>
            </root>
        </mxGraphModel>
    </diagram>
</mxfile>